<?xml version="1.0" encoding="utf-8"?><svg id="sort_svganim" image-rendering="auto" baseProfile="basic" version="1.1" x="0px" y="0px" width="200" height="200" xmlns="http://www.w3.org/2000/svg" xmlns:xlink="http://www.w3.org/1999/xlink"><g id=".__E3.__82.__B7.__E3.__83.__BC.__E3.__83.__B3-1" overflow="visible"><g display="none" id="Layer392_0_FILL"><path fill="#010000" stroke="none" d="M200 0L0 0 0 200 200 200 200 0Z"/><animate attributeName="display" repeatCount="indefinite" dur="4.5s" keyTimes="0;.252;1" values="none;inline;inline"/></g><g id="Layer391_0_FILL"><path fill="#010000" stroke="none" d="M200 0L0 0 0 200 200 200 200 0Z"/><animate attributeName="display" repeatCount="indefinite" dur="4.5s" keyTimes="0;.252;1" values="inline;none;none"/></g><g display="none" id="Layer370_0_FILL"><path fill="#FEFEFE" stroke="none" d="M59.5 5L34.5 5 34.5 195 59.5 195 59.5 5Z"/><path fill="#FEFEFE" stroke="none" d="M166.5 195L166.5 31 141.5 31 141.5 195 166.5 195Z"/><path fill="#FEFEFE" stroke="none" d="M86 57L61 57 61 195 86 195 86 57Z"/><path fill="#FEFEFE" stroke="none" d="M140 83L115 83 115 195 140 195 140 83Z"/><path fill="#FEFEFE" stroke="none" d="M113.5 108L87.5 108 87.5 195 113.5 195 113.5 108Z"/><path fill="#FEFEFE" stroke="none" d="M33 134L7 134 7 195 33 195 33 134Z"/><path fill="#FEFEFE" stroke="none" d="M193 160L168 160 168 195 193 195 193 160Z"/><animate attributeName="display" repeatCount="indefinite" dur="4.5s" keyTimes="0;.978;1" values="none;inline;inline"/></g><g display="none" id="Layer369_0_FILL"><path fill="#FEFEFE" stroke="none" d="M86 57.6L61 57.6 61 195 86 195 86 57.6M113.5 107.7L87.5 107.7 87.5 195 113.5 195 113.5 107.7M33 134.3L7 134.3 7 195 33 195 33 134.3M59.5 6.55L34.5 6.55 34.5 195 59.5 195 59.5 6.55M140 82.7L115 82.7 115 195 140 195 140 82.7M166.5 195L166.5 31 141.5 31 141.5 195 166.5 195M193 158.15L168 158.15 168 195 193 195 193 158.15Z"/><animate attributeName="display" repeatCount="indefinite" dur="4.5s" keyTimes="0;.97;.978;1" values="none;inline;none;none"/></g><g display="none" id="Layer368_0_FILL"><path fill="#FEFEFE" stroke="none" d="M86.05 59.35L61 59.35 61 194.95 86.05 194.95 86.05 59.35M113.5 106.75L87.55 106.75 87.55 194.95 113.5 194.95 113.5 106.75M32.95 135.2L7 135.2 7 194.95 32.95 194.95 32.95 135.2M59.5 11.05L34.45 11.05 34.45 194.95 59.5 194.95 59.5 11.05M140 81.7L115 81.7 115 194.95 140 194.95 140 81.7M166.5 194.95L166.5 30.95 141.5 30.95 141.5 194.95 166.5 194.95M193 152.6L168 152.6 168 194.95 193 194.95 193 152.6Z"/><animate attributeName="display" repeatCount="indefinite" dur="4.5s" keyTimes="0;.963;.97;1" values="none;inline;none;none"/></g><g display="none" id="Layer367_0_FILL"><path fill="#FEFEFE" stroke="none" d="M86.1 62.4L61 62.4 61 194.95 86.1 194.95 86.1 62.4M113.5 105.3L87.6 105.3 87.6 194.95 113.5 194.95 113.5 105.3M32.9 136.7L7 136.7 7 194.95 32.9 194.95 32.9 136.7M59.5 18.7L34.4 18.7 34.4 194.95 59.5 194.95 59.5 18.7M140 80.2L115 80.2 115 194.95 140 194.95 140 80.2M166.5 194.95L166.5 30.95 141.5 30.95 141.5 194.95 166.5 194.95M193 143.45L168 143.45 168 194.95 193 194.95 193 143.45Z"/><animate attributeName="display" repeatCount="indefinite" dur="4.5s" keyTimes="0;.956;.963;1" values="none;inline;none;none"/></g><g display="none" id="Layer366_0_FILL"><path fill="#FEFEFE" stroke="none" d="M86.2 66.65L61 66.65 61 195 86.2 195 86.2 66.65M113.5 103.25L87.7 103.25 87.7 195 113.5 195 113.5 103.25M32.8 138.9L7 138.9 7 195 32.8 195 32.8 138.9M59.5 29.45L34.3 29.45 34.3 195 59.5 195 59.5 29.45M140 78.1L115 78.1 115 195 140 195 140 78.1M166.5 195L166.5 31 141.5 31 141.5 195 166.5 195M193 130.65L168 130.65 168 195 193 195 193 130.65Z"/><animate attributeName="display" repeatCount="indefinite" dur="4.5s" keyTimes="0;.948;.956;1" values="none;inline;none;none"/></g><g display="none" id="Layer365_0_FILL"><path fill="#FEFEFE" stroke="none" d="M86.3 72.1L61 72.1 61 195 86.3 195 86.3 72.1M113.5 100.6L87.8 100.6 87.8 195 113.5 195 113.5 100.6M32.7 141.7L7 141.7 7 195 32.7 195 32.7 141.7M59.5 43.15L34.2 43.15 34.2 195 59.5 195 59.5 43.15M140 75.3L115 75.3 115 195 140 195 140 75.3M166.5 195L166.5 31 141.5 31 141.5 195 166.5 195M193 114.15L168 114.15 168 195 193 195 193 114.15Z"/><animate attributeName="display" repeatCount="indefinite" dur="4.5s" keyTimes="0;.941;.948;1" values="none;inline;none;none"/></g><g display="none" id="Layer364_0_FILL"><path fill="#FEFEFE" stroke="none" d="M86.45 78.75L61 78.75 61 195 86.45 195 86.45 78.75M32.55 145.1L7 145.1 7 195 32.55 195 32.55 145.1M59.5 59.95L34.05 59.95 34.05 195 59.5 195 59.5 59.95M140 71.9L115 71.9 115 195 140 195 140 71.9M113.5 97.35L87.95 97.35 87.95 195 113.5 195 113.5 97.35M166.5 195L166.5 31 141.5 31 141.5 195 166.5 195M193 93.95L168 93.95 168 195 193 195 193 93.95Z"/><animate attributeName="display" repeatCount="indefinite" dur="4.5s" keyTimes="0;.933;.941;1" values="none;inline;none;none"/></g><g display="none" id="Layer363_0_FILL"><path fill="#FFF" stroke="none" d="M86.55 86.25L61 86.25 61 195 86.55 195 86.55 86.25M32.45 148.9L7 148.9 7 195 32.45 195 32.45 148.9M59.5 79.05L33.95 79.05 33.95 195 59.5 195 59.5 79.05M140 68.1L115 68.1 115 195 140 195 140 68.1M113.5 93.65L88.05 93.65 88.05 195 113.5 195 113.5 93.65M166.5 195L166.5 31 141.5 31 141.5 195 166.5 195M193 71.05L168 71.05 168 195 193 195 193 71.05Z"/><animate attributeName="display" repeatCount="indefinite" dur="4.5s" keyTimes="0;.926;.933;1" values="none;inline;none;none"/></g><g display="none" id="Layer362_0_FILL"><path fill="#FFF" stroke="none" d="M86.7 92.9L61 92.9 61 195 86.7 195 86.7 92.9M32.3 152.3L7 152.3 7 195 32.3 195 32.3 152.3M59.5 95.85L33.8 95.85 33.8 195 59.5 195 59.5 95.85M140 64.7L115 64.7 115 195 140 195 140 64.7M113.5 90.4L88.2 90.4 88.2 195 113.5 195 113.5 90.4M166.5 195L166.5 31 141.5 31 141.5 195 166.5 195M193 50.85L168 50.85 168 195 193 195 193 50.85Z"/><animate attributeName="display" repeatCount="indefinite" dur="4.5s" keyTimes="0;.919;.926;1" values="none;inline;none;none"/></g><g display="none" id="Layer361_0_FILL"><path fill="#FFF" stroke="none" d="M86.8 98.35L61 98.35 61 195 86.8 195 86.8 98.35M59.5 109.55L33.7 109.55 33.7 195 59.5 195 59.5 109.55M32.2 155.1L7 155.1 7 195 32.2 195 32.2 155.1M140 61.9L115 61.9 115 195 140 195 140 61.9M113.5 87.75L88.3 87.75 88.3 195 113.5 195 113.5 87.75M166.5 195L166.5 31 141.5 31 141.5 195 166.5 195M193 34.35L168 34.35 168 195 193 195 193 34.35Z"/><animate attributeName="display" repeatCount="indefinite" dur="4.5s" keyTimes="0;.911;.919;1" values="none;inline;none;none"/></g><g display="none" id="Layer360_0_FILL"><path fill="#FFF" stroke="none" d="M59.5 120.25L33.6 120.25 33.6 195 59.5 195 59.5 120.25M61 102.55L61 195 86.9 195 86.9 102.55 61 102.55M32.1 157.25L7 157.25 7 195 32.1 195 32.1 157.25M140 59.75L115 59.75 115 195 140 195 140 59.75M113.5 85.65L88.4 85.65 88.4 195 113.5 195 113.5 85.65M166.5 195L166.5 31 141.5 31 141.5 195 166.5 195M193 21.5L168 21.5 168 195 193 195 193 21.5Z"/><animate attributeName="display" repeatCount="indefinite" dur="4.5s" keyTimes="0;.904;.911;1" values="none;inline;none;none"/></g><g display="none" id="Layer359_0_FILL"><path fill="#FFF" stroke="none" d="M59.5 127.9L33.55 127.9 33.55 195 59.5 195 59.5 127.9M61 105.6L61 195 86.95 195 86.95 105.6 61 105.6M32.05 158.75L7 158.75 7 195 32.05 195 32.05 158.75M140 58.25L115 58.25 115 195 140 195 140 58.25M113.5 84.2L88.45 84.2 88.45 195 113.5 195 113.5 84.2M166.5 195L166.5 31 141.5 31 141.5 195 166.5 195M193 12.35L168 12.35 168 195 193 195 193 12.35Z"/><animate attributeName="display" repeatCount="indefinite" dur="4.5s" keyTimes="0;.896;.904;1" values="none;inline;none;none"/></g><g display="none" id="Layer358_0_FILL"><path fill="#FFF" stroke="none" d="M59.5 132.45L33.5 132.45 33.5 195 59.5 195 59.5 132.45M61 107.4L61 195 87 195 87 107.4 61 107.4M32 159.7L7 159.7 7 195 32 195 32 159.7M140 57.3L115 57.3 115 195 140 195 140 57.3M113.5 83.3L88.5 83.3 88.5 195 113.5 195 113.5 83.3M166.5 195L166.5 31 141.5 31 141.5 195 166.5 195M193 6.85L168 6.85 168 195 193 195 193 6.85Z"/><animate attributeName="display" repeatCount="indefinite" dur="4.5s" keyTimes="0;.889;.896;1" values="none;inline;none;none"/></g><g display="none" id="Layer337_0_FILL"><path fill="#FFF" stroke="none" d="M193 5L168 5 168 195 193 195 193 5Z"/><path fill="#FFF" stroke="none" d="M166.5 195L166.5 31 141.5 31 141.5 195 166.5 195Z"/><path fill="#FFF" stroke="none" d="M140 57L115 57 115 195 140 195 140 57Z"/><path fill="#FFF" stroke="none" d="M113.5 83L88.5 83 88.5 195 113.5 195 113.5 83Z"/><path fill="#FFF" stroke="none" d="M61 108L61 195 87 195 87 108 61 108Z"/><path fill="#FFF" stroke="none" d="M59.5 195L59.5 134 33.5 134 33.5 195 59.5 195Z"/><path fill="#FFF" stroke="none" d="M32 160L7 160 7 195 32 195 32 160Z"/><animate attributeName="display" repeatCount="indefinite" dur="4.5s" keyTimes="0;.711;.889;1" values="none;inline;none;none"/></g><g display="none" id="Layer330_0_FILL"><path fill="#FE0000" stroke="none" d="M193 5L168 5 168 195 193 195 193 5Z"/><path fill="#FE0000" stroke="none" d="M166.5 195L166.5 31 141.5 31 141.5 195 166.5 195Z"/><path fill="#FFF" stroke="none" d="M140 57L115 57 115 195 140 195 140 57Z"/><path fill="#FFF" stroke="none" d="M113.5 83L88.5 83 88.5 195 113.5 195 113.5 83Z"/><path fill="#FFF" stroke="none" d="M61 108L61 195 87 195 87 108 61 108Z"/><path fill="#FFF" stroke="none" d="M59.5 195L59.5 134 33.5 134 33.5 195 59.5 195Z"/><path fill="#FFF" stroke="none" d="M32 160L7 160 7 195 32 195 32 160Z"/><animate attributeName="display" repeatCount="indefinite" dur="4.5s" keyTimes="0;.696;.711;1" values="none;inline;none;none"/></g><g display="none" id="Layer323_0_FILL"><path fill="#FFF" stroke="none" d="M193 5L168 5 168 195 193 195 193 5Z"/><path fill="#FE0000" stroke="none" d="M166.5 195L166.5 31 141.5 31 141.5 195 166.5 195Z"/><path fill="#FE0000" stroke="none" d="M140 57L115 57 115 195 140 195 140 57Z"/><path fill="#FFF" stroke="none" d="M113.5 83L88.5 83 88.5 195 113.5 195 113.5 83Z"/><path fill="#FFF" stroke="none" d="M61 108L61 195 87 195 87 108 61 108Z"/><path fill="#FFF" stroke="none" d="M59.5 195L59.5 134 33.5 134 33.5 195 59.5 195Z"/><path fill="#FFF" stroke="none" d="M32 160L7 160 7 195 32 195 32 160Z"/><animate attributeName="display" repeatCount="indefinite" dur="4.5s" keyTimes="0;.681;.696;1" values="none;inline;none;none"/></g><g display="none" id="Layer316_0_FILL"><path fill="#FFF" stroke="none" d="M193 5L168 5 168 195 193 195 193 5Z"/><path fill="#FFF" stroke="none" d="M166.5 195L166.5 31 141.5 31 141.5 195 166.5 195Z"/><path fill="#FE0000" stroke="none" d="M140 57L115 57 115 195 140 195 140 57Z"/><path fill="#FE0000" stroke="none" d="M113.5 83L88.5 83 88.5 195 113.5 195 113.5 83Z"/><path fill="#FFF" stroke="none" d="M61 108L61 195 87 195 87 108 61 108Z"/><path fill="#FFF" stroke="none" d="M59.5 195L59.5 134 33.5 134 33.5 195 59.5 195Z"/><path fill="#FFF" stroke="none" d="M32 160L7 160 7 195 32 195 32 160Z"/><animate attributeName="display" repeatCount="indefinite" dur="4.5s" keyTimes="0;.667;.681;1" values="none;inline;none;none"/></g><g display="none" id="Layer309_0_FILL"><path fill="#FFF" stroke="none" d="M193 5L168 5 168 195 193 195 193 5Z"/><path fill="#FFF" stroke="none" d="M166.5 195L166.5 31 141.5 31 141.5 195 166.5 195Z"/><path fill="#FFF" stroke="none" d="M140 57L115 57 115 195 140 195 140 57Z"/><path fill="#FE0000" stroke="none" d="M113.5 83L88.5 83 88.5 195 113.5 195 113.5 83Z"/><path fill="#FE0000" stroke="none" d="M61 108L61 195 87 195 87 108 61 108Z"/><path fill="#FFF" stroke="none" d="M59.5 195L59.5 134 33.5 134 33.5 195 59.5 195Z"/><path fill="#FFF" stroke="none" d="M32 160L7 160 7 195 32 195 32 160Z"/><animate attributeName="display" repeatCount="indefinite" dur="4.5s" keyTimes="0;.652;.667;1" values="none;inline;none;none"/></g><g display="none" id="Layer302_0_FILL"><path fill="#FFF" stroke="none" d="M193 5L168 5 168 195 193 195 193 5Z"/><path fill="#FFF" stroke="none" d="M166.5 195L166.5 31 141.5 31 141.5 195 166.5 195Z"/><path fill="#FFF" stroke="none" d="M140 57L115 57 115 195 140 195 140 57Z"/><path fill="#FFF" stroke="none" d="M113.5 83L88.5 83 88.5 195 113.5 195 113.5 83Z"/><path fill="#FE0000" stroke="none" d="M61 108L61 195 87 195 87 108 61 108Z"/><path fill="#FE0000" stroke="none" d="M59.5 195L59.5 134 33.5 134 33.5 195 59.5 195Z"/><path fill="#FFF" stroke="none" d="M32 160L7 160 7 195 32 195 32 160Z"/><animate attributeName="display" repeatCount="indefinite" dur="4.5s" keyTimes="0;.637;.652;1" values="none;inline;none;none"/></g><g display="none" id="Layer295_0_FILL"><path fill="#FFF" stroke="none" d="M193 5L168 5 168 195 193 195 193 5Z"/><path fill="#FFF" stroke="none" d="M166.5 195L166.5 31 141.5 31 141.5 195 166.5 195Z"/><path fill="#FFF" stroke="none" d="M140 57L115 57 115 195 140 195 140 57Z"/><path fill="#FFF" stroke="none" d="M113.5 83L88.5 83 88.5 195 113.5 195 113.5 83Z"/><path fill="#FFF" stroke="none" d="M61 108L61 195 87 195 87 108 61 108Z"/><path fill="#FE0000" stroke="none" d="M59.5 195L59.5 134 33.5 134 33.5 195 59.5 195Z"/><path fill="#FE0000" stroke="none" d="M32 160L7 160 7 195 32 195 32 160Z"/><animate attributeName="display" repeatCount="indefinite" dur="4.5s" keyTimes="0;.622;.637;1" values="none;inline;none;none"/></g><g display="none" id="Layer288_0_FILL"><path fill="#FFF" stroke="none" d="M193 5L168 5 168 195 193 195 193 5Z"/><path fill="#FFF" stroke="none" d="M166.5 195L166.5 31 141.5 31 141.5 195 166.5 195Z"/><path fill="#FFF" stroke="none" d="M140 57L115 57 115 195 140 195 140 57Z"/><path fill="#FFF" stroke="none" d="M113.5 83L88.5 83 88.5 195 113.5 195 113.5 83Z"/><path fill="#FFF" stroke="none" d="M61 108L61 195 87 195 87 108 61 108Z"/><path fill="#FE0000" stroke="none" d="M33 134L7 134 7 195 33 195 33 134Z"/><path fill="#FE0000" stroke="none" d="M34.5 160L34.5 195 59.5 195 59.5 160 34.5 160Z"/><animate attributeName="display" repeatCount="indefinite" dur="4.5s" keyTimes="0;.607;.622;1" values="none;inline;none;none"/></g><g display="none" id="Layer281_0_FILL"><path fill="#FE0000" stroke="none" d="M193 5L168 5 168 195 193 195 193 5Z"/><path fill="#FE0000" stroke="none" d="M166.5 195L166.5 31 141.5 31 141.5 195 166.5 195Z"/><path fill="#FFF" stroke="none" d="M140 57L115 57 115 195 140 195 140 57Z"/><path fill="#FFF" stroke="none" d="M113.5 83L88.5 83 88.5 195 113.5 195 113.5 83Z"/><path fill="#FFF" stroke="none" d="M61 108L61 195 87 195 87 108 61 108Z"/><path fill="#FFF" stroke="none" d="M33 134L7 134 7 195 33 195 33 134Z"/><path fill="#FFF" stroke="none" d="M34.5 160L34.5 195 59.5 195 59.5 160 34.5 160Z"/><animate attributeName="display" repeatCount="indefinite" dur="4.5s" keyTimes="0;.593;.607;1" values="none;inline;none;none"/></g><g display="none" id="Layer274_0_FILL"><path fill="#FFF" stroke="none" d="M193 5L168 5 168 195 193 195 193 5Z"/><path fill="#FE0000" stroke="none" d="M166.5 195L166.5 31 141.5 31 141.5 195 166.5 195Z"/><path fill="#FE0000" stroke="none" d="M140 57L115 57 115 195 140 195 140 57Z"/><path fill="#FFF" stroke="none" d="M113.5 83L88.5 83 88.5 195 113.5 195 113.5 83Z"/><path fill="#FFF" stroke="none" d="M61 108L61 195 87 195 87 108 61 108Z"/><path fill="#FFF" stroke="none" d="M33 134L7 134 7 195 33 195 33 134Z"/><path fill="#FFF" stroke="none" d="M34.5 160L34.5 195 59.5 195 59.5 160 34.5 160Z"/><animate attributeName="display" repeatCount="indefinite" dur="4.5s" keyTimes="0;.578;.593;1" values="none;inline;none;none"/></g><g display="none" id="Layer267_0_FILL"><path fill="#FFF" stroke="none" d="M193 5L168 5 168 195 193 195 193 5Z"/><path fill="#FFF" stroke="none" d="M166.5 195L166.5 31 141.5 31 141.5 195 166.5 195Z"/><path fill="#FE0000" stroke="none" d="M140 57L115 57 115 195 140 195 140 57Z"/><path fill="#FE0000" stroke="none" d="M113.5 83L88.5 83 88.5 195 113.5 195 113.5 83Z"/><path fill="#FFF" stroke="none" d="M61 108L61 195 87 195 87 108 61 108Z"/><path fill="#FFF" stroke="none" d="M33 134L7 134 7 195 33 195 33 134Z"/><path fill="#FFF" stroke="none" d="M34.5 160L34.5 195 59.5 195 59.5 160 34.5 160Z"/><animate attributeName="display" repeatCount="indefinite" dur="4.5s" keyTimes="0;.563;.578;1" values="none;inline;none;none"/></g><g display="none" id="Layer260_0_FILL"><path fill="#FFF" stroke="none" d="M193 5L168 5 168 195 193 195 193 5Z"/><path fill="#FFF" stroke="none" d="M166.5 195L166.5 31 141.5 31 141.5 195 166.5 195Z"/><path fill="#FFF" stroke="none" d="M140 57L115 57 115 195 140 195 140 57Z"/><path fill="#FE0000" stroke="none" d="M113.5 83L88.5 83 88.5 195 113.5 195 113.5 83Z"/><path fill="#FE0000" stroke="none" d="M61 108L61 195 87 195 87 108 61 108Z"/><path fill="#FFF" stroke="none" d="M33 134L7 134 7 195 33 195 33 134Z"/><path fill="#FFF" stroke="none" d="M34.5 160L34.5 195 59.5 195 59.5 160 34.5 160Z"/><animate attributeName="display" repeatCount="indefinite" dur="4.5s" keyTimes="0;.548;.563;1" values="none;inline;none;none"/></g><g display="none" id="Layer253_0_FILL"><path fill="#FFF" stroke="none" d="M193 5L168 5 168 195 193 195 193 5Z"/><path fill="#FFF" stroke="none" d="M166.5 195L166.5 31 141.5 31 141.5 195 166.5 195Z"/><path fill="#FFF" stroke="none" d="M140 57L115 57 115 195 140 195 140 57Z"/><path fill="#FFF" stroke="none" d="M113.5 83L88.5 83 88.5 195 113.5 195 113.5 83Z"/><path fill="#FE0000" stroke="none" d="M61 108L61 195 87 195 87 108 61 108Z"/><path fill="#FFF" stroke="none" d="M33 134L7 134 7 195 33 195 33 134Z"/><path fill="#FE0000" stroke="none" d="M34.5 160L34.5 195 59.5 195 59.5 160 34.5 160Z"/><animate attributeName="display" repeatCount="indefinite" dur="4.5s" keyTimes="0;.533;.548;1" values="none;inline;none;none"/></g><g display="none" id="Layer246_0_FILL"><path fill="#FFF" stroke="none" d="M193 5L168 5 168 195 193 195 193 5Z"/><path fill="#FFF" stroke="none" d="M166.5 195L166.5 31 141.5 31 141.5 195 166.5 195Z"/><path fill="#FFF" stroke="none" d="M140 57L115 57 115 195 140 195 140 57Z"/><path fill="#FFF" stroke="none" d="M113.5 83L88.5 83 88.5 195 113.5 195 113.5 83Z"/><path fill="#FE0000" stroke="none" d="M60.5 195L60.5 108 34.5 108 34.5 195 60.5 195Z"/><path fill="#FFF" stroke="none" d="M33 134L7 134 7 195 33 195 33 134Z"/><path fill="#FE0000" stroke="none" d="M62 160L62 195 87 195 87 160 62 160Z"/><animate attributeName="display" repeatCount="indefinite" dur="4.5s" keyTimes="0;.519;.533;1" values="none;inline;none;none"/></g><g display="none" id="Layer239_0_FILL"><path fill="#FFF" stroke="none" d="M193 5L168 5 168 195 193 195 193 5Z"/><path fill="#FFF" stroke="none" d="M166.5 195L166.5 31 141.5 31 141.5 195 166.5 195Z"/><path fill="#FFF" stroke="none" d="M140 57L115 57 115 195 140 195 140 57Z"/><path fill="#FFF" stroke="none" d="M113.5 83L88.5 83 88.5 195 113.5 195 113.5 83Z"/><path fill="#FE0000" stroke="none" d="M60.5 195L60.5 108 34.5 108 34.5 195 60.5 195Z"/><path fill="#FE0000" stroke="none" d="M33 134L7 134 7 195 33 195 33 134Z"/><path fill="#FFF" stroke="none" d="M62 160L62 195 87 195 87 160 62 160Z"/><animate attributeName="display" repeatCount="indefinite" dur="4.5s" keyTimes="0;.504;.519;1" values="none;inline;none;none"/></g><g display="none" id="Layer232_0_FILL"><path fill="#FE0000" stroke="none" d="M193 5L168 5 168 195 193 195 193 5Z"/><path fill="#FE0000" stroke="none" d="M166.5 195L166.5 31 141.5 31 141.5 195 166.5 195Z"/><path fill="#FFF" stroke="none" d="M140 57L115 57 115 195 140 195 140 57Z"/><path fill="#FFF" stroke="none" d="M113.5 83L88.5 83 88.5 195 113.5 195 113.5 83Z"/><path fill="#FFF" stroke="none" d="M60.5 195L60.5 108 34.5 108 34.5 195 60.5 195Z"/><path fill="#FEFEFE" stroke="none" d="M33 134L7 134 7 195 33 195 33 134Z"/><path fill="#FFF" stroke="none" d="M62 160L62 195 87 195 87 160 62 160Z"/><animate attributeName="display" repeatCount="indefinite" dur="4.5s" keyTimes="0;.489;.504;1" values="none;inline;none;none"/></g><g display="none" id="Layer225_0_FILL"><path fill="#FFF" stroke="none" d="M193 5L168 5 168 195 193 195 193 5Z"/><path fill="#FE0000" stroke="none" d="M166.5 195L166.5 31 141.5 31 141.5 195 166.5 195Z"/><path fill="#FE0000" stroke="none" d="M140 57L115 57 115 195 140 195 140 57Z"/><path fill="#FFF" stroke="none" d="M113.5 83L88.5 83 88.5 195 113.5 195 113.5 83Z"/><path fill="#FFF" stroke="none" d="M60.5 195L60.5 108 34.5 108 34.5 195 60.5 195Z"/><path fill="#FEFEFE" stroke="none" d="M33 134L7 134 7 195 33 195 33 134Z"/><path fill="#FFF" stroke="none" d="M62 160L62 195 87 195 87 160 62 160Z"/><animate attributeName="display" repeatCount="indefinite" dur="4.5s" keyTimes="0;.474;.489;1" values="none;inline;none;none"/></g><g display="none" id="Layer218_0_FILL"><path fill="#FFF" stroke="none" d="M193 5L168 5 168 195 193 195 193 5Z"/><path fill="#FFF" stroke="none" d="M166.5 195L166.5 31 141.5 31 141.5 195 166.5 195Z"/><path fill="#FE0000" stroke="none" d="M140 57L115 57 115 195 140 195 140 57Z"/><path fill="#FE0000" stroke="none" d="M113.5 83L88.5 83 88.5 195 113.5 195 113.5 83Z"/><path fill="#FFF" stroke="none" d="M60.5 195L60.5 108 34.5 108 34.5 195 60.5 195Z"/><path fill="#FEFEFE" stroke="none" d="M33 134L7 134 7 195 33 195 33 134Z"/><path fill="#FFF" stroke="none" d="M62 160L62 195 87 195 87 160 62 160Z"/><animate attributeName="display" repeatCount="indefinite" dur="4.5s" keyTimes="0;.459;.474;1" values="none;inline;none;none"/></g><g display="none" id="Layer211_0_FILL"><path fill="#FFF" stroke="none" d="M193 5L168 5 168 195 193 195 193 5Z"/><path fill="#FFF" stroke="none" d="M166.5 195L166.5 31 141.5 31 141.5 195 166.5 195Z"/><path fill="#FFF" stroke="none" d="M140 57L115 57 115 195 140 195 140 57Z"/><path fill="#FE0000" stroke="none" d="M113.5 83L88.5 83 88.5 195 113.5 195 113.5 83Z"/><path fill="#FFF" stroke="none" d="M60.5 195L60.5 108 34.5 108 34.5 195 60.5 195Z"/><path fill="#FEFEFE" stroke="none" d="M33 134L7 134 7 195 33 195 33 134Z"/><path fill="#FE0000" stroke="none" d="M62 160L62 195 87 195 87 160 62 160Z"/><animate attributeName="display" repeatCount="indefinite" dur="4.5s" keyTimes="0;.444;.459;1" values="none;inline;none;none"/></g><g display="none" id="Layer204_0_FILL"><path fill="#FFF" stroke="none" d="M193 5L168 5 168 195 193 195 193 5Z"/><path fill="#FFF" stroke="none" d="M166.5 195L166.5 31 141.5 31 141.5 195 166.5 195Z"/><path fill="#FFF" stroke="none" d="M140 57L115 57 115 195 140 195 140 57Z"/><path fill="#FE0000" stroke="none" d="M87 195L87 83 62 83 62 195 87 195Z"/><path fill="#FFF" stroke="none" d="M60.5 195L60.5 108 34.5 108 34.5 195 60.5 195Z"/><path fill="#FEFEFE" stroke="none" d="M33 134L7 134 7 195 33 195 33 134Z"/><path fill="#FE0000" stroke="none" d="M113.5 160L88.5 160 88.5 195 113.5 195 113.5 160Z"/><animate attributeName="display" repeatCount="indefinite" dur="4.5s" keyTimes="0;.43;.444;1" values="none;inline;none;none"/></g><g display="none" id="Layer197_0_FILL"><path fill="#FFF" stroke="none" d="M193 5L168 5 168 195 193 195 193 5Z"/><path fill="#FFF" stroke="none" d="M166.5 195L166.5 31 141.5 31 141.5 195 166.5 195Z"/><path fill="#FFF" stroke="none" d="M140 57L115 57 115 195 140 195 140 57Z"/><path fill="#FE0000" stroke="none" d="M87 195L87 83 62 83 62 195 87 195Z"/><path fill="#FE0000" stroke="none" d="M60.5 195L60.5 108 34.5 108 34.5 195 60.5 195Z"/><path fill="#FEFEFE" stroke="none" d="M33 134L7 134 7 195 33 195 33 134Z"/><path fill="#FEFEFE" stroke="none" d="M113.5 160L88.5 160 88.5 195 113.5 195 113.5 160Z"/><animate attributeName="display" repeatCount="indefinite" dur="4.5s" keyTimes="0;.415;.43;1" values="none;inline;none;none"/></g><g display="none" id="Layer190_0_FILL"><path fill="#FFF" stroke="none" d="M193 5L168 5 168 195 193 195 193 5Z"/><path fill="#FFF" stroke="none" d="M166.5 195L166.5 31 141.5 31 141.5 195 166.5 195Z"/><path fill="#FFF" stroke="none" d="M140 57L115 57 115 195 140 195 140 57Z"/><path fill="#FEFEFE" stroke="none" d="M87 195L87 83 62 83 62 195 87 195Z"/><path fill="#FE0000" stroke="none" d="M60.5 195L60.5 108 34.5 108 34.5 195 60.5 195Z"/><path fill="#FE0000" stroke="none" d="M33 134L7 134 7 195 33 195 33 134Z"/><path fill="#FEFEFE" stroke="none" d="M113.5 160L88.5 160 88.5 195 113.5 195 113.5 160Z"/><animate attributeName="display" repeatCount="indefinite" dur="4.5s" keyTimes="0;.4;.415;1" values="none;inline;none;none"/></g><g display="none" id="Layer183_0_FILL"><path fill="#FE0000" stroke="none" d="M193 5L168 5 168 195 193 195 193 5Z"/><path fill="#FE0000" stroke="none" d="M166.5 195L166.5 31 141.5 31 141.5 195 166.5 195Z"/><path fill="#FFF" stroke="none" d="M140 57L115 57 115 195 140 195 140 57Z"/><path fill="#FEFEFE" stroke="none" d="M87 195L87 83 62 83 62 195 87 195Z"/><path fill="#FEFEFE" stroke="none" d="M60.5 195L60.5 108 34.5 108 34.5 195 60.5 195Z"/><path fill="#FEFEFE" stroke="none" d="M33 134L7 134 7 195 33 195 33 134Z"/><path fill="#FEFEFE" stroke="none" d="M113.5 160L88.5 160 88.5 195 113.5 195 113.5 160Z"/><animate attributeName="display" repeatCount="indefinite" dur="4.5s" keyTimes="0;.385;.4;1" values="none;inline;none;none"/></g><g display="none" id="Layer176_0_FILL"><path fill="#FEFEFE" stroke="none" d="M193 5L168 5 168 195 193 195 193 5Z"/><path fill="#FE0000" stroke="none" d="M166.5 195L166.5 31 141.5 31 141.5 195 166.5 195Z"/><path fill="#FE0000" stroke="none" d="M140 57L115 57 115 195 140 195 140 57Z"/><path fill="#FEFEFE" stroke="none" d="M87 195L87 83 62 83 62 195 87 195Z"/><path fill="#FEFEFE" stroke="none" d="M60.5 195L60.5 108 34.5 108 34.5 195 60.5 195Z"/><path fill="#FEFEFE" stroke="none" d="M33 134L7 134 7 195 33 195 33 134Z"/><path fill="#FEFEFE" stroke="none" d="M113.5 160L88.5 160 88.5 195 113.5 195 113.5 160Z"/><animate attributeName="display" repeatCount="indefinite" dur="4.5s" keyTimes="0;.37;.385;1" values="none;inline;none;none"/></g><g display="none" id="Layer169_0_FILL"><path fill="#FEFEFE" stroke="none" d="M193 5L168 5 168 195 193 195 193 5Z"/><path fill="#FEFEFE" stroke="none" d="M166.5 195L166.5 31 141.5 31 141.5 195 166.5 195Z"/><path fill="#FE0000" stroke="none" d="M140 57L115 57 115 195 140 195 140 57Z"/><path fill="#FEFEFE" stroke="none" d="M87 195L87 83 62 83 62 195 87 195Z"/><path fill="#FEFEFE" stroke="none" d="M60.5 195L60.5 108 34.5 108 34.5 195 60.5 195Z"/><path fill="#FEFEFE" stroke="none" d="M33 134L7 134 7 195 33 195 33 134Z"/><path fill="#FE0000" stroke="none" d="M113.5 160L88.5 160 88.5 195 113.5 195 113.5 160Z"/><animate attributeName="display" repeatCount="indefinite" dur="4.5s" keyTimes="0;.356;.37;1" values="none;inline;none;none"/></g><g display="none" id="Layer162_0_FILL"><path fill="#FEFEFE" stroke="none" d="M193 5L168 5 168 195 193 195 193 5Z"/><path fill="#FEFEFE" stroke="none" d="M166.5 195L166.5 31 141.5 31 141.5 195 166.5 195Z"/><path fill="#FE0000" stroke="none" d="M113.5 57L88.5 57 88.5 195 113.5 195 113.5 57Z"/><path fill="#FEFEFE" stroke="none" d="M87 195L87 83 62 83 62 195 87 195Z"/><path fill="#FEFEFE" stroke="none" d="M60.5 195L60.5 108 34.5 108 34.5 195 60.5 195Z"/><path fill="#FEFEFE" stroke="none" d="M33 134L7 134 7 195 33 195 33 134Z"/><path fill="#FE0000" stroke="none" d="M115 160L115 195 140 195 140 160 115 160Z"/><animate attributeName="display" repeatCount="indefinite" dur="4.5s" keyTimes="0;.341;.356;1" values="none;inline;none;none"/></g><g display="none" id="Layer155_0_FILL"><path fill="#FEFEFE" stroke="none" d="M193 5L168 5 168 195 193 195 193 5Z"/><path fill="#FEFEFE" stroke="none" d="M166.5 195L166.5 31 141.5 31 141.5 195 166.5 195Z"/><path fill="#FE0000" stroke="none" d="M113.5 57L88.5 57 88.5 195 113.5 195 113.5 57Z"/><path fill="#FE0000" stroke="none" d="M87 195L87 83 62 83 62 195 87 195Z"/><path fill="#FEFEFE" stroke="none" d="M60.5 195L60.5 108 34.5 108 34.5 195 60.5 195Z"/><path fill="#FEFEFE" stroke="none" d="M33 134L7 134 7 195 33 195 33 134Z"/><path fill="#FEFEFE" stroke="none" d="M115 160L115 195 140 195 140 160 115 160Z"/><animate attributeName="display" repeatCount="indefinite" dur="4.5s" keyTimes="0;.326;.341;1" values="none;inline;none;none"/></g><g display="none" id="Layer148_0_FILL"><path fill="#FEFEFE" stroke="none" d="M193 5L168 5 168 195 193 195 193 5Z"/><path fill="#FEFEFE" stroke="none" d="M166.5 195L166.5 31 141.5 31 141.5 195 166.5 195Z"/><path fill="#FEFEFE" stroke="none" d="M113.5 57L88.5 57 88.5 195 113.5 195 113.5 57Z"/><path fill="#FE0000" stroke="none" d="M87 195L87 83 62 83 62 195 87 195Z"/><path fill="#FE0000" stroke="none" d="M60.5 195L60.5 108 34.5 108 34.5 195 60.5 195Z"/><path fill="#FEFEFE" stroke="none" d="M33 134L7 134 7 195 33 195 33 134Z"/><path fill="#FEFEFE" stroke="none" d="M115 160L115 195 140 195 140 160 115 160Z"/><animate attributeName="display" repeatCount="indefinite" dur="4.5s" keyTimes="0;.311;.326;1" values="none;inline;none;none"/></g><g display="none" id="Layer141_0_FILL"><path fill="#FEFEFE" stroke="none" d="M193 5L168 5 168 195 193 195 193 5Z"/><path fill="#FEFEFE" stroke="none" d="M166.5 195L166.5 31 141.5 31 141.5 195 166.5 195Z"/><path fill="#FEFEFE" stroke="none" d="M113.5 57L88.5 57 88.5 195 113.5 195 113.5 57Z"/><path fill="#FEFEFE" stroke="none" d="M87 195L87 83 62 83 62 195 87 195Z"/><path fill="#FE0000" stroke="none" d="M60.5 195L60.5 108 34.5 108 34.5 195 60.5 195Z"/><path fill="#FE0000" stroke="none" d="M33 134L7 134 7 195 33 195 33 134Z"/><path fill="#FEFEFE" stroke="none" d="M115 160L115 195 140 195 140 160 115 160Z"/><animate attributeName="display" repeatCount="indefinite" dur="4.5s" keyTimes="0;.296;.311;1" values="none;inline;none;none"/></g><g display="none" id="Layer134_0_FILL"><path fill="#FE0000" stroke="none" d="M193 5L168 5 168 195 193 195 193 5Z"/><path fill="#FE0000" stroke="none" d="M166.5 195L166.5 31 141.5 31 141.5 195 166.5 195Z"/><path fill="#FEFEFE" stroke="none" d="M113.5 57L88.5 57 88.5 195 113.5 195 113.5 57Z"/><path fill="#FEFEFE" stroke="none" d="M87 195L87 83 62 83 62 195 87 195Z"/><path fill="#FEFEFE" stroke="none" d="M60.5 195L60.5 108 34.5 108 34.5 195 60.5 195Z"/><path fill="#FEFEFE" stroke="none" d="M33 134L7 134 7 195 33 195 33 134Z"/><path fill="#FEFEFE" stroke="none" d="M115 160L115 195 140 195 140 160 115 160Z"/><animate attributeName="display" repeatCount="indefinite" dur="4.5s" keyTimes="0;.281;.296;1" values="none;inline;none;none"/></g><g display="none" id="Layer127_0_FILL"><path fill="#FEFEFE" stroke="none" d="M193 5L168 5 168 195 193 195 193 5Z"/><path fill="#FE0000" stroke="none" d="M166.5 195L166.5 31 141.5 31 141.5 195 166.5 195Z"/><path fill="#FEFEFE" stroke="none" d="M113.5 57L88.5 57 88.5 195 113.5 195 113.5 57Z"/><path fill="#FEFEFE" stroke="none" d="M87 195L87 83 62 83 62 195 87 195Z"/><path fill="#FEFEFE" stroke="none" d="M60.5 195L60.5 108 34.5 108 34.5 195 60.5 195Z"/><path fill="#FEFEFE" stroke="none" d="M33 134L7 134 7 195 33 195 33 134Z"/><path fill="#FE0000" stroke="none" d="M115 160L115 195 140 195 140 160 115 160Z"/><animate attributeName="display" repeatCount="indefinite" dur="4.5s" keyTimes="0;.267;.281;1" values="none;inline;none;none"/></g><g display="none" id="Layer120_0_FILL"><path fill="#FEFEFE" stroke="none" d="M193 5L168 5 168 195 193 195 193 5Z"/><path fill="#FE0000" stroke="none" d="M140 31L115 31 115 195 140 195 140 31Z"/><path fill="#FEFEFE" stroke="none" d="M113.5 57L88.5 57 88.5 195 113.5 195 113.5 57Z"/><path fill="#FEFEFE" stroke="none" d="M87 195L87 83 62 83 62 195 87 195Z"/><path fill="#FEFEFE" stroke="none" d="M60.5 195L60.5 108 34.5 108 34.5 195 60.5 195Z"/><path fill="#FEFEFE" stroke="none" d="M33 134L7 134 7 195 33 195 33 134Z"/><path fill="#FE0000" stroke="none" d="M166.5 195L166.5 160 141.5 160 141.5 195 166.5 195Z"/><animate attributeName="display" repeatCount="indefinite" dur="4.5s" keyTimes="0;.252;.267;1" values="none;inline;none;none"/></g><g display="none" id="Layer113_0_FILL"><path fill="#FEFEFE" stroke="none" d="M193 5L168 5 168 195 193 195 193 5Z"/><path fill="#FE0000" stroke="none" d="M140 31L115 31 115 195 140 195 140 31Z"/><path fill="#FE0000" stroke="none" d="M113.5 57L88.5 57 88.5 195 113.5 195 113.5 57Z"/><path fill="#FEFEFE" stroke="none" d="M87 195L87 83 62 83 62 195 87 195Z"/><path fill="#FEFEFE" stroke="none" d="M60.5 195L60.5 108 34.5 108 34.5 195 60.5 195Z"/><path fill="#FEFEFE" stroke="none" d="M33 134L7 134 7 195 33 195 33 134Z"/><path fill="#FEFEFE" stroke="none" d="M166.5 195L166.5 160 141.5 160 141.5 195 166.5 195Z"/><animate attributeName="display" repeatCount="indefinite" dur="4.5s" keyTimes="0;.237;.252;1" values="none;inline;none;none"/></g><g display="none" id="Layer106_0_FILL"><path fill="#FEFEFE" stroke="none" d="M193 5L168 5 168 195 193 195 193 5Z"/><path fill="#FEFEFE" stroke="none" d="M140 31L115 31 115 195 140 195 140 31Z"/><path fill="#FE0000" stroke="none" d="M113.5 57L88.5 57 88.5 195 113.5 195 113.5 57Z"/><path fill="#FE0000" stroke="none" d="M87 195L87 83 62 83 62 195 87 195Z"/><path fill="#FEFEFE" stroke="none" d="M60.5 195L60.5 108 34.5 108 34.5 195 60.5 195Z"/><path fill="#FEFEFE" stroke="none" d="M33 134L7 134 7 195 33 195 33 134Z"/><path fill="#FEFEFE" stroke="none" d="M166.5 195L166.5 160 141.5 160 141.5 195 166.5 195Z"/><animate attributeName="display" repeatCount="indefinite" dur="4.5s" keyTimes="0;.222;.237;1" values="none;inline;none;none"/></g><g display="none" id="Layer99_0_FILL"><path fill="#FEFEFE" stroke="none" d="M193 5L168 5 168 195 193 195 193 5Z"/><path fill="#FEFEFE" stroke="none" d="M140 31L115 31 115 195 140 195 140 31Z"/><path fill="#FE0000" stroke="none" d="M87 57L62 57 62 195 87 195 87 57Z"/><path fill="#FE0000" stroke="none" d="M113.5 83L88.5 83 88.5 195 113.5 195 113.5 83Z"/><path fill="#FEFEFE" stroke="none" d="M60.5 195L60.5 108 34.5 108 34.5 195 60.5 195Z"/><path fill="#FEFEFE" stroke="none" d="M33 134L7 134 7 195 33 195 33 134Z"/><path fill="#FEFEFE" stroke="none" d="M166.5 195L166.5 160 141.5 160 141.5 195 166.5 195Z"/><animate attributeName="display" repeatCount="indefinite" dur="4.5s" keyTimes="0;.207;.222;1" values="none;inline;none;none"/></g><g display="none" id="Layer92_0_FILL"><path fill="#FEFEFE" stroke="none" d="M193 5L168 5 168 195 193 195 193 5Z"/><path fill="#FEFEFE" stroke="none" d="M140 31L115 31 115 195 140 195 140 31Z"/><path fill="#FE0000" stroke="none" d="M87 57L62 57 62 195 87 195 87 57Z"/><path fill="#FEFEFE" stroke="none" d="M113.5 83L88.5 83 88.5 195 113.5 195 113.5 83Z"/><path fill="#FE0000" stroke="none" d="M60.5 195L60.5 108 34.5 108 34.5 195 60.5 195Z"/><path fill="#FEFEFE" stroke="none" d="M33 134L7 134 7 195 33 195 33 134Z"/><path fill="#FEFEFE" stroke="none" d="M166.5 195L166.5 160 141.5 160 141.5 195 166.5 195Z"/><animate attributeName="display" repeatCount="indefinite" dur="4.5s" keyTimes="0;.193;.207;1" values="none;inline;none;none"/></g><g display="none" id="Layer85_0_FILL"><path fill="#FEFEFE" stroke="none" d="M193 5L168 5 168 195 193 195 193 5Z"/><path fill="#FEFEFE" stroke="none" d="M140 31L115 31 115 195 140 195 140 31Z"/><path fill="#FE0000" stroke="none" d="M59.5 57L34.5 57 34.5 195 59.5 195 59.5 57Z"/><path fill="#FEFEFE" stroke="none" d="M113.5 83L88.5 83 88.5 195 113.5 195 113.5 83Z"/><path fill="#FE0000" stroke="none" d="M61 108L61 195 87 195 87 108 61 108Z"/><path fill="#FEFEFE" stroke="none" d="M33 134L7 134 7 195 33 195 33 134Z"/><path fill="#FEFEFE" stroke="none" d="M166.5 195L166.5 160 141.5 160 141.5 195 166.5 195Z"/><animate attributeName="display" repeatCount="indefinite" dur="4.5s" keyTimes="0;.178;.193;1" values="none;inline;none;none"/></g><g display="none" id="Layer78_0_FILL"><path fill="#FEFEFE" stroke="none" d="M193 5L168 5 168 195 193 195 193 5Z"/><path fill="#FEFEFE" stroke="none" d="M140 31L115 31 115 195 140 195 140 31Z"/><path fill="#FE0000" stroke="none" d="M59.5 57L34.5 57 34.5 195 59.5 195 59.5 57Z"/><path fill="#FEFEFE" stroke="none" d="M113.5 83L88.5 83 88.5 195 113.5 195 113.5 83Z"/><path fill="#FEFEFE" stroke="none" d="M61 108L61 195 87 195 87 108 61 108Z"/><path fill="#FE0000" stroke="none" d="M33 134L7 134 7 195 33 195 33 134Z"/><path fill="#FEFEFE" stroke="none" d="M166.5 195L166.5 160 141.5 160 141.5 195 166.5 195Z"/><animate attributeName="display" repeatCount="indefinite" dur="4.5s" keyTimes="0;.163;.178;1" values="none;inline;none;none"/></g><g display="none" id="Layer71_0_FILL"><path fill="#FE0000" stroke="none" d="M193 5L168 5 168 195 193 195 193 5Z"/><path fill="#FEFEFE" stroke="none" d="M140 31L115 31 115 195 140 195 140 31Z"/><path fill="#FEFEFE" stroke="none" d="M59.5 57L34.5 57 34.5 195 59.5 195 59.5 57Z"/><path fill="#FEFEFE" stroke="none" d="M113.5 83L88.5 83 88.5 195 113.5 195 113.5 83Z"/><path fill="#FEFEFE" stroke="none" d="M61 108L61 195 87 195 87 108 61 108Z"/><path fill="#FEFEFE" stroke="none" d="M33 134L7 134 7 195 33 195 33 134Z"/><path fill="#FE0000" stroke="none" d="M166.5 195L166.5 160 141.5 160 141.5 195 166.5 195Z"/><animate attributeName="display" repeatCount="indefinite" dur="4.5s" keyTimes="0;.148;.163;1" values="none;inline;none;none"/></g><g display="none" id="Layer64_0_FILL"><path fill="#FE0000" stroke="none" d="M166.5 195L166.5 5 141.5 5 141.5 195 166.5 195Z"/><path fill="#FEFEFE" stroke="none" d="M140 31L115 31 115 195 140 195 140 31Z"/><path fill="#FEFEFE" stroke="none" d="M59.5 57L34.5 57 34.5 195 59.5 195 59.5 57Z"/><path fill="#FEFEFE" stroke="none" d="M113.5 83L88.5 83 88.5 195 113.5 195 113.5 83Z"/><path fill="#FEFEFE" stroke="none" d="M61 108L61 195 87 195 87 108 61 108Z"/><path fill="#FEFEFE" stroke="none" d="M33 134L7 134 7 195 33 195 33 134Z"/><path fill="#FE0000" stroke="none" d="M193 160L168 160 168 195 193 195 193 160Z"/><animate attributeName="display" repeatCount="indefinite" dur="4.5s" keyTimes="0;.133;.148;1" values="none;inline;none;none"/></g><g display="none" id="Layer57_0_FILL"><path fill="#FE0000" stroke="none" d="M166.5 195L166.5 5 141.5 5 141.5 195 166.5 195Z"/><path fill="#FE0000" stroke="none" d="M140 31L115 31 115 195 140 195 140 31Z"/><path fill="#FEFEFE" stroke="none" d="M59.5 57L34.5 57 34.5 195 59.5 195 59.5 57Z"/><path fill="#FEFEFE" stroke="none" d="M113.5 83L88.5 83 88.5 195 113.5 195 113.5 83Z"/><path fill="#FEFEFE" stroke="none" d="M61 108L61 195 87 195 87 108 61 108Z"/><path fill="#FEFEFE" stroke="none" d="M33 134L7 134 7 195 33 195 33 134Z"/><path fill="#FEFEFE" stroke="none" d="M193 160L168 160 168 195 193 195 193 160Z"/><animate attributeName="display" repeatCount="indefinite" dur="4.5s" keyTimes="0;.119;.133;1" values="none;inline;none;none"/></g><g display="none" id="Layer50_0_FILL"><path fill="#FE0000" stroke="none" d="M140 5L115 5 115 195 140 195 140 5Z"/><path fill="#FE0000" stroke="none" d="M166.5 195L166.5 31 141.5 31 141.5 195 166.5 195Z"/><path fill="#FEFEFE" stroke="none" d="M59.5 57L34.5 57 34.5 195 59.5 195 59.5 57Z"/><path fill="#FEFEFE" stroke="none" d="M113.5 83L88.5 83 88.5 195 113.5 195 113.5 83Z"/><path fill="#FEFEFE" stroke="none" d="M61 108L61 195 87 195 87 108 61 108Z"/><path fill="#FEFEFE" stroke="none" d="M33 134L7 134 7 195 33 195 33 134Z"/><path fill="#FEFEFE" stroke="none" d="M193 160L168 160 168 195 193 195 193 160Z"/><animate attributeName="display" repeatCount="indefinite" dur="4.5s" keyTimes="0;.104;.119;1" values="none;inline;none;none"/></g><g display="none" id="Layer43_0_FILL"><path fill="#FE0000" stroke="none" d="M140 5L115 5 115 195 140 195 140 5Z"/><path fill="#FEFEFE" stroke="none" d="M166.5 195L166.5 31 141.5 31 141.5 195 166.5 195Z"/><path fill="#FEFEFE" stroke="none" d="M59.5 57L34.5 57 34.5 195 59.5 195 59.5 57Z"/><path fill="#FE0000" stroke="none" d="M113.5 83L88.5 83 88.5 195 113.5 195 113.5 83Z"/><path fill="#FEFEFE" stroke="none" d="M61 108L61 195 87 195 87 108 61 108Z"/><path fill="#FEFEFE" stroke="none" d="M33 134L7 134 7 195 33 195 33 134Z"/><path fill="#FEFEFE" stroke="none" d="M193 160L168 160 168 195 193 195 193 160Z"/><animate attributeName="display" repeatCount="indefinite" dur="4.5s" keyTimes="0;.089;.104;1" values="none;inline;none;none"/></g><g display="none" id="Layer36_0_FILL"><path fill="#FE0000" stroke="none" d="M113.5 5L88.5 5 88.5 195 113.5 195 113.5 5Z"/><path fill="#FEFEFE" stroke="none" d="M166.5 195L166.5 31 141.5 31 141.5 195 166.5 195Z"/><path fill="#FEFEFE" stroke="none" d="M59.5 57L34.5 57 34.5 195 59.5 195 59.5 57Z"/><path fill="#FE0000" stroke="none" d="M140 83L115 83 115 195 140 195 140 83Z"/><path fill="#FEFEFE" stroke="none" d="M61 108L61 195 87 195 87 108 61 108Z"/><path fill="#FEFEFE" stroke="none" d="M33 134L7 134 7 195 33 195 33 134Z"/><path fill="#FEFEFE" stroke="none" d="M193 160L168 160 168 195 193 195 193 160Z"/><animate attributeName="display" repeatCount="indefinite" dur="4.5s" keyTimes="0;.074;.089;1" values="none;inline;none;none"/></g><g display="none" id="Layer29_0_FILL"><path fill="#FE0000" stroke="none" d="M113.5 5L88.5 5 88.5 195 113.5 195 113.5 5Z"/><path fill="#FEFEFE" stroke="none" d="M166.5 195L166.5 31 141.5 31 141.5 195 166.5 195Z"/><path fill="#FEFEFE" stroke="none" d="M59.5 57L34.5 57 34.5 195 59.5 195 59.5 57Z"/><path fill="#FEFEFE" stroke="none" d="M140 83L115 83 115 195 140 195 140 83Z"/><path fill="#FE0000" stroke="none" d="M61 108L61 195 87 195 87 108 61 108Z"/><path fill="#FEFEFE" stroke="none" d="M33 134L7 134 7 195 33 195 33 134Z"/><path fill="#FEFEFE" stroke="none" d="M193 160L168 160 168 195 193 195 193 160Z"/><animate attributeName="display" repeatCount="indefinite" dur="4.5s" keyTimes="0;.059;.074;1" values="none;inline;none;none"/></g><g display="none" id="Layer22_0_FILL"><path fill="#FE0000" stroke="none" d="M86 195L86 5 61 5 61 195 86 195Z"/><path fill="#FEFEFE" stroke="none" d="M166.5 195L166.5 31 141.5 31 141.5 195 166.5 195Z"/><path fill="#FEFEFE" stroke="none" d="M59.5 57L34.5 57 34.5 195 59.5 195 59.5 57Z"/><path fill="#FEFEFE" stroke="none" d="M140 83L115 83 115 195 140 195 140 83Z"/><path fill="#FE0000" stroke="none" d="M113.5 108L87.5 108 87.5 195 113.5 195 113.5 108Z"/><path fill="#FEFEFE" stroke="none" d="M33 134L7 134 7 195 33 195 33 134Z"/><path fill="#FEFEFE" stroke="none" d="M193 160L168 160 168 195 193 195 193 160Z"/><animate attributeName="display" repeatCount="indefinite" dur="4.5s" keyTimes="0;.044;.059;1" values="none;inline;none;none"/></g><g display="none" id="Layer15_0_FILL"><path fill="#FE0000" stroke="none" d="M86 195L86 5 61 5 61 195 86 195Z"/><path fill="#FEFEFE" stroke="none" d="M166.5 195L166.5 31 141.5 31 141.5 195 166.5 195Z"/><path fill="#FE0000" stroke="none" d="M59.5 57L34.5 57 34.5 195 59.5 195 59.5 57Z"/><path fill="#FEFEFE" stroke="none" d="M140 83L115 83 115 195 140 195 140 83Z"/><path fill="#FEFEFE" stroke="none" d="M113.5 108L87.5 108 87.5 195 113.5 195 113.5 108Z"/><path fill="#FEFEFE" stroke="none" d="M33 134L7 134 7 195 33 195 33 134Z"/><path fill="#FEFEFE" stroke="none" d="M193 160L168 160 168 195 193 195 193 160Z"/><animate attributeName="display" repeatCount="indefinite" dur="4.5s" keyTimes="0;.03;.044;1" values="none;inline;none;none"/></g><g display="none" id="Layer8_0_FILL"><path fill="#FE0000" stroke="none" d="M59.5 5L34.5 5 34.5 195 59.5 195 59.5 5Z"/><path fill="#FEFEFE" stroke="none" d="M166.5 195L166.5 31 141.5 31 141.5 195 166.5 195Z"/><path fill="#FE0000" stroke="none" d="M86 57L61 57 61 195 86 195 86 57Z"/><path fill="#FEFEFE" stroke="none" d="M140 83L115 83 115 195 140 195 140 83Z"/><path fill="#FEFEFE" stroke="none" d="M113.5 108L87.5 108 87.5 195 113.5 195 113.5 108Z"/><path fill="#FEFEFE" stroke="none" d="M33 134L7 134 7 195 33 195 33 134Z"/><path fill="#FEFEFE" stroke="none" d="M193 160L168 160 168 195 193 195 193 160Z"/><animate attributeName="display" repeatCount="indefinite" dur="4.5s" keyTimes="0;.015;.03;1" values="none;inline;none;none"/></g><g id="Layer1_0_FILL"><path fill="#FE0000" stroke="none" d="M59.5 5L34.5 5 34.5 195 59.5 195 59.5 5Z"/><path fill="#FEFEFE" stroke="none" d="M166.5 195L166.5 31 141.5 31 141.5 195 166.5 195Z"/><path fill="#FEFEFE" stroke="none" d="M86 57L61 57 61 195 86 195 86 57Z"/><path fill="#FEFEFE" stroke="none" d="M140 83L115 83 115 195 140 195 140 83Z"/><path fill="#FEFEFE" stroke="none" d="M113.5 108L87.5 108 87.5 195 113.5 195 113.5 108Z"/><path fill="#FE0000" stroke="none" d="M33 134L7 134 7 195 33 195 33 134Z"/><path fill="#FEFEFE" stroke="none" d="M193 160L168 160 168 195 193 195 193 160Z"/><animate attributeName="display" repeatCount="indefinite" dur="4.5s" keyTimes="0;.015;1" values="inline;none;none"/></g></g></svg>